<svg xmlns="http://www.w3.org/2000/svg" xmlns:xlink="http://www.w3.org/1999/xlink" version="1.1" width="1080" height="1080" viewBox="-15.77 -34.51 1080 1080" xml:space="preserve">
<rect x="0" y="0" width="100%" height="100%" fill="transparent"></rect>
<g transform="matrix(1 0 0 1 540 540)" id="9e0bd4e5-9607-4b37-818b-218ef8533f57"  >
<rect style="stroke: none; stroke-width: 1; stroke-dasharray: none; stroke-linecap: butt; stroke-dashoffset: 0; stroke-linejoin: miter; stroke-miterlimit: 4; fill: rgb(0,0,0); fill-rule: nonzero; opacity: 1; visibility: hidden;" vector-effect="non-scaling-stroke"  x="-540" y="-540" rx="0" ry="0" width="1080" height="1080" />
</g>
<g transform="matrix(1 0 0 1 540 540)" id="67f18025-2bf0-4d3f-a523-c6e302bc53f4"  >
</g>
<g transform="matrix(-1.06 -0.38 0.37 -1.04 437.35 477.26)" id="0547bd1d-5697-49da-a38c-5d719d5fb31d"  >
<path style="stroke: rgb(0,0,0); stroke-width: 0; stroke-dasharray: none; stroke-linecap: butt; stroke-dashoffset: 0; stroke-linejoin: miter; stroke-miterlimit: 4; fill: #00e5ff; fill-rule: nonzero; opacity: 1;" vector-effect="non-scaling-stroke"  transform=" translate(-50, -50)" d="M 39.888 15.341 L 85.926 50 L 39.888 84.659 L 39.888 67.897 L 63.684 50 L 39.888 32.102 L 39.888 15.341 z M 14.074 15.341 L 60.113 50 L 14.074 84.659 L 14.074 15.341 z" stroke-linecap="round" />
</g>
<g transform="matrix(2.23 0 0 2.23 548.36 518.5)" id="path869"  >
<path style="stroke: rgb(0,0,0); stroke-width: 0; stroke-dasharray: none; stroke-linecap: butt; stroke-dashoffset: 0; stroke-linejoin: miter; stroke-miterlimit: 4; fill: rgb(255,255,255); fill-rule: nonzero; opacity: 1;" vector-effect="non-scaling-stroke"  transform=" translate(-51.5, -51.5)" d="M 63 67 L 63 36 L 65.93 36 C 74.338 35.793 80.04 40.626 80 51.5 C 80.04 62.658 74.623 67.207 66.072 67 Z M 43 23 L 63 80 L 67 80 C 86.453 80 97 68.344 97 51.5 C 97 34.372 86.595 23 67 23 Z M 28.113 57.495 L 33.473 39.545 L 38.861 57.495000000000005 L 28.114 57.495000000000005 Z M 26 23 L 6 80 L 21.453 80 L 24.288 70.326 L 42.703 70.282 L 45.585 80 L 61 80 L 41 23 Z" stroke-linecap="round" />
</g>
</svg>
